<svg width="334" height="254" viewBox="0 0 334 254" fill="none" xmlns="http://www.w3.org/2000/svg">
<path d="M287.027 101.253C272.347 43.45 221.623 1.72451 162.084 0.0509353C130.607 -0.833832 97.4849 9.61955 73.3695 46.1998C30.2606 111.591 76.0186 156.778 107.92 178.25C123.332 188.645 137.219 201.143 149.179 215.384C170.728 240.989 212.182 272.806 261.551 222.953C297.335 186.819 296.806 139.755 287.027 101.253Z" fill="#F2F2F2"/>
<path opacity="0.1" d="M220.906 155.971L251.114 125.816L220.906 95.66L230.116 86.4689L269.533 125.816L230.116 165.162L220.906 155.971Z" fill="black"/>
<path opacity="0.1" d="M134.644 127.967H146.923V115.671H134.644V127.967ZM196.286 115.671H184.007V127.967H196.286V115.671ZM159.325 127.967H171.605V115.671H159.325V127.967Z" fill="black"/>
<path opacity="0.1" d="M118.005 155.664L87.7671 125.508L117.974 95.3527L108.765 86.1615L69.3787 125.508L108.796 164.855L118.005 155.664Z" fill="black"/>
<path d="M334 231.253C334 236.346 259.232 254 167 254C74.7684 254 0 236.346 0 231.253C0 226.159 74.7684 235.556 167 235.556C259.232 235.556 334 226.159 334 231.253Z" fill="#3F3D56"/>
<path opacity="0.1" d="M334 231.253C334 236.346 259.232 254 167 254C74.7684 254 0 236.346 0 231.253C0 226.159 74.7684 235.556 167 235.556C259.232 235.556 334 226.159 334 231.253Z" fill="black"/>
<path d="M167 240.475C259.232 240.475 334 236.346 334 231.253C334 226.16 259.232 222.031 167 222.031C74.7684 222.031 0 226.16 0 231.253C0 236.346 74.7684 240.475 167 240.475Z" fill="#3F3D56"/>
<path d="M194.228 186.883C194.228 206.561 206.557 222.485 221.793 222.485L194.228 186.883Z" fill="#3F3D56"/>
<path d="M221.793 222.485C221.793 202.585 235.551 186.483 252.553 186.483L221.793 222.485Z" fill="#6C63FF"/>
<path d="M204.215 188.667C204.215 207.359 212.077 222.485 221.793 222.485L204.215 188.667Z" fill="#6C63FF"/>
<path d="M221.793 222.485C221.793 197.058 237.695 176.482 257.347 176.482L221.793 222.485Z" fill="#3F3D56"/>
<path d="M215.994 222.736C215.994 222.736 219.903 222.615 221.081 221.775C222.259 220.935 227.094 219.932 227.387 221.279C227.679 222.626 233.261 227.98 228.848 228.015C224.434 228.051 218.593 227.327 217.417 226.61C216.241 225.893 215.994 222.736 215.994 222.736Z" fill="#A8A8A8"/>
<path opacity="0.2" d="M228.927 227.546C224.513 227.582 218.672 226.858 217.496 226.141C216.601 225.595 216.244 223.635 216.124 222.731C216.042 222.734 215.994 222.736 215.994 222.736C215.994 222.736 216.241 225.893 217.417 226.61C218.593 227.327 224.434 228.051 228.848 228.015C230.122 228.005 230.562 227.551 230.538 226.879C230.361 227.285 229.875 227.539 228.927 227.546Z" fill="black"/>
<path d="M265.706 117.688C265.706 117.688 256.254 110.502 255.537 113.136C254.819 115.77 262.472 121.756 262.472 121.756L265.706 117.688Z" fill="#FFB9B9"/>
<path opacity="0.1" d="M265.706 117.688C265.706 117.688 256.254 110.502 255.537 113.136C254.819 115.77 262.472 121.756 262.472 121.756L265.706 117.688Z" fill="black"/>
<path d="M296.908 94.9371C296.908 94.9371 285.668 115.052 285.429 117.925C285.19 120.799 285.19 121.038 284.233 120.799C283.277 120.559 270.124 119.122 268.929 119.601C267.733 120.08 265.341 116.728 265.341 116.728C265.341 116.728 260.798 121.278 261.754 122.235C262.711 123.193 265.581 123.672 266.059 124.869C266.537 126.067 267.255 127.264 269.407 127.025C271.559 126.785 286.146 130.856 288.06 130.138C289.973 129.419 290.451 128.222 291.408 128.222C292.364 128.222 294.277 127.264 294.277 127.025C294.277 126.785 300.973 114.094 300.973 114.094C300.973 114.094 308.865 96.8527 296.908 94.9371Z" fill="#D0CDE1"/>
<path opacity="0.1" d="M296.908 94.9371C296.908 94.9371 285.668 115.052 285.429 117.925C285.19 120.799 285.19 121.038 284.233 120.799C283.277 120.559 270.124 119.122 268.929 119.601C267.733 120.08 265.341 116.728 265.341 116.728C265.341 116.728 260.798 121.278 261.754 122.235C262.711 123.193 265.581 123.672 266.059 124.869C266.537 126.067 267.255 127.264 269.407 127.025C271.559 126.785 286.146 130.856 288.06 130.138C289.973 129.419 290.451 128.222 291.408 128.222C292.364 128.222 294.277 127.264 294.277 127.025C294.277 126.785 300.973 114.094 300.973 114.094C300.973 114.094 308.865 96.8527 296.908 94.9371Z" fill="black"/>
<path d="M280.601 81.6766C280.499 82.9482 280.52 84.2267 280.662 85.4944C281.026 88.2455 282.29 91.1133 281.096 93.6813C280.662 94.6135 279.927 95.4257 279.527 96.369C278.68 98.366 279.448 100.581 279.333 102.706C279.184 105.452 277.44 108.097 274.788 109.602C279.32 109.743 283.63 107.499 286.482 104.441C289.333 101.384 290.921 97.5914 292.112 93.797C292.724 92.015 293.116 90.1649 293.28 88.2877C293.375 87.2093 293.249 86.1229 292.909 85.0952C292.49 84.0911 291.939 83.1479 291.269 82.2907C290.555 81.2854 289.821 80.2603 288.768 79.5123C287.47 78.591 284.968 77.666 283.247 77.8001C281.135 77.9645 280.69 80.2091 280.601 81.6766Z" fill="#2F2E41"/>
<path d="M287.581 89.1901C287.581 89.1901 290.212 98.529 288.06 101.163C285.907 103.797 300.973 99.9658 300.973 99.9658C300.973 99.9658 293.56 92.5425 297.147 87.7534L287.581 89.1901Z" fill="#FFB9B9"/>
<path opacity="0.1" d="M287.581 89.1901C287.581 89.1901 290.212 98.529 288.06 101.163C285.907 103.797 300.973 99.9658 300.973 99.9658C300.973 99.9658 293.56 92.5425 297.147 87.7534L287.581 89.1901Z" fill="black"/>
<path d="M220.906 150.131L251.114 119.975L220.906 89.8195L230.116 80.6284L269.533 119.975L230.116 159.322L220.906 150.131Z" fill="#6C63FF"/>
<path d="M278.972 213.709V220.653L282.559 224.963L285.668 223.526L284.712 213.469L278.972 213.709Z" fill="#FFB9B9"/>
<path d="M280.407 220.174C280.407 220.174 279.451 216.822 277.777 219.216C276.103 221.611 274.429 226.879 273.472 227.118C272.516 227.358 265.82 234.781 272.516 234.781C279.212 234.781 281.364 231.668 281.364 231.668C281.364 231.668 288.06 229.034 288.06 228.555C288.06 228.076 287.103 219.216 286.625 219.216C286.147 219.216 285.907 220.892 284.712 220.892C283.516 220.892 280.407 220.174 280.407 220.174Z" fill="#2F2E41"/>
<path d="M294.995 214.906L294.756 221.371L300.495 223.766V214.427L294.995 214.906Z" fill="#FFB9B9"/>
<path d="M301.212 221.371C301.212 221.371 298.103 218.019 296.429 218.737C295.601 219.071 294.802 219.471 294.038 219.935C294.038 219.935 293.082 223.048 292.603 225.682C292.125 228.316 291.886 229.513 291.408 230.471C290.929 231.429 290.451 235.021 295.234 235.499C300.017 235.978 301.451 233.344 301.451 233.344L302.647 227.118C302.647 227.118 302.169 221.371 301.212 221.371Z" fill="#2F2E41"/>
<path d="M282.081 145.942C282.081 145.942 275.146 161.507 276.103 175.635C276.103 175.635 273.711 181.142 275.146 189.763C276.581 198.383 278.494 215.624 278.494 215.624C278.494 215.624 284.951 216.343 285.429 215.145C285.429 215.145 285.907 203.172 286.386 202.694C286.864 202.215 286.147 191.199 285.429 189.044C284.712 186.889 292.125 165.577 292.125 165.577L290.212 138.997L282.081 145.942Z" fill="#2F2E41"/>
<path opacity="0.1" d="M282.081 145.942C282.081 145.942 275.146 161.507 276.103 175.635C276.103 175.635 273.711 181.142 275.146 189.763C276.581 198.383 278.494 215.624 278.494 215.624C278.494 215.624 284.951 216.343 285.429 215.145C285.429 215.145 285.907 203.172 286.386 202.694C286.864 202.215 286.147 191.199 285.429 189.044C284.712 186.889 292.125 165.577 292.125 165.577L290.212 138.997L282.081 145.942Z" fill="black"/>
<path d="M280.168 144.984L284.712 154.802C284.712 154.802 286.864 177.071 288.06 179.945C288.06 179.945 288.538 188.087 290.69 190.721C292.843 193.355 294.517 216.582 294.517 216.582C294.517 216.582 300.495 218.258 300.973 216.582C301.452 214.906 302.886 203.412 302.886 203.412C302.886 203.412 303.365 193.594 300.734 187.129C298.104 180.663 303.843 157.436 303.843 157.436C303.843 157.436 309.821 146.181 301.212 137.082L280.168 144.984Z" fill="#2F2E41"/>
<path d="M292.842 92.0635C298.257 92.0635 302.647 87.6679 302.647 82.2457C302.647 76.8235 298.257 72.4279 292.842 72.4279C287.427 72.4279 283.038 76.8235 283.038 82.2457C283.038 87.6679 287.427 92.0635 292.842 92.0635Z" fill="#FFB9B9"/>
<path d="M301.93 97.0922C301.93 97.0922 291.647 97.0922 290.212 98.2895C289.857 98.6275 289.386 98.8161 288.897 98.8161C288.407 98.8161 287.936 98.6275 287.581 98.2895C287.581 98.2895 283.994 98.529 283.038 101.402C282.081 104.276 279.212 108.107 279.212 108.107C279.212 108.107 274.907 111.22 277.298 119.362C279.69 127.504 277.777 140.674 277.777 140.674C277.777 140.674 275.864 143.547 277.777 144.745C279.69 145.942 280.407 146.421 280.168 147.379C279.929 148.336 301.93 139.476 301.93 137.8C301.93 136.124 301.452 134.687 301.93 133.969C302.408 133.251 302.886 132.053 302.408 130.856C301.93 129.659 302.886 129.419 302.647 128.222C302.408 127.025 303.843 118.165 304.799 114.333C305.756 110.502 305.517 97.3317 301.93 97.0922Z" fill="#D0CDE1"/>
<path d="M265.706 120.561C265.706 120.561 256.254 113.375 255.537 116.009C254.819 118.644 262.472 124.63 262.472 124.63L265.706 120.561Z" fill="#FFB9B9"/>
<path d="M296.908 98.2895C296.908 98.2895 285.668 118.404 285.429 121.278C285.19 124.151 285.19 124.39 284.233 124.151C283.277 123.912 270.124 122.475 268.929 122.954C267.733 123.433 265.341 120.08 265.341 120.08C265.341 120.08 260.798 124.63 261.754 125.588C262.711 126.546 265.581 127.025 266.059 128.222C266.537 129.419 267.255 130.616 269.407 130.377C271.559 130.138 286.146 134.208 288.06 133.49C289.973 132.772 290.451 131.574 291.408 131.574C292.364 131.574 294.277 130.616 294.277 130.377C294.277 130.137 300.973 117.446 300.973 117.446C300.973 117.446 308.865 100.205 296.908 98.2895Z" fill="#D0CDE1"/>
<path d="M287.987 88.5182C287.851 87.5459 287.354 86.6637 287.099 85.7157C286.899 84.957 286.855 84.1657 286.969 83.3894C287.082 82.613 287.352 81.8678 287.76 81.1984C289.167 78.9239 291.928 77.9165 293.853 76.0622C293.893 77.0067 294.548 77.8139 295.271 78.4214C295.995 79.0288 296.825 79.5216 297.437 80.241C298.026 81 298.455 81.8703 298.699 82.7996C299.076 83.8764 299.245 85.0153 299.197 86.1554C299.169 86.7252 299.026 87.2833 298.777 87.796C298.527 88.3087 298.176 88.7652 297.744 89.1378C297.027 89.7054 296.025 90.0296 295.679 90.8766C295.542 91.3 295.503 91.7486 295.563 92.1892C295.728 94.8237 295.881 97.5052 295.261 100.071C294.642 102.637 293.124 105.115 290.745 106.253C292.7 106.392 294.696 106.527 296.593 106.033C298.49 105.539 300.303 104.295 300.957 102.445C301.28 101.532 301.31 100.517 301.769 99.6645C302.929 97.5071 306.132 97.4087 307.706 95.5322C308.336 94.7813 308.64 93.8137 308.866 92.8595C310.195 87.245 309.261 81.2833 307.239 75.8805C306.541 74.0183 305.673 72.1433 304.178 70.8345C302.905 69.7207 301.28 69.1071 299.673 68.583C297.328 67.8182 294.912 67.1916 292.447 67.1108C291.376 67.0478 290.303 67.1733 289.275 67.4816C288.26 67.8486 287.316 68.3871 286.484 69.0737C282.622 72.0825 279.993 76.8913 280.342 81.7784C280.553 84.7355 281.804 87.534 283.412 90.0236C283.974 90.8943 285.302 92.751 286.537 92.2035C287.656 91.707 288.134 89.5684 287.987 88.5182Z" fill="#2F2E41"/>
<path d="M134.644 122.127H146.923V109.831H134.644V122.127ZM196.286 109.831H184.007V122.127H196.286V109.831ZM159.325 122.127H171.605V109.831H159.325V122.127Z" fill="#6C63FF"/>
<path d="M63.3021 73.1885C69.0084 73.1885 73.6343 69.5754 73.6343 65.1186C73.6343 60.6617 69.0084 57.0486 63.3021 57.0486C57.5958 57.0486 52.97 60.6617 52.97 65.1186C52.97 69.5754 57.5958 73.1885 63.3021 73.1885Z" fill="#2F2E41"/>
<path d="M65.0588 120.677C65.0588 120.677 74.3577 121.297 76.0109 120.056C77.664 118.814 84.6899 121.711 85.3098 123.367C85.9298 125.022 75.3909 125.229 73.7378 125.229C72.0846 125.229 64.2322 127.712 64.2322 127.712L65.0588 120.677Z" fill="#A0616A"/>
<path d="M45.9105 217.065C45.9105 217.065 41.5768 228.008 43.8379 229.328C46.099 230.649 69.8401 229.706 69.8401 229.706C69.8401 229.706 73.7969 227.253 69.2748 225.555C69.2748 225.555 65.5064 225.366 63.0569 223.857C60.6074 222.348 57.7811 219.517 57.7811 219.517C57.7811 219.517 57.5927 215.367 56.0853 216.31C55.6343 216.607 55.2505 216.996 54.9584 217.451C54.6664 217.906 54.4726 218.417 54.3895 218.951L45.9105 217.065Z" fill="#2F2E41"/>
<path opacity="0.1" d="M45.9105 217.065C45.9105 217.065 41.5768 228.008 43.8379 229.328C46.099 230.649 69.8401 229.706 69.8401 229.706C69.8401 229.706 73.7969 227.253 69.2748 225.555C69.2748 225.555 65.5064 225.366 63.0569 223.857C60.6074 222.348 57.7811 219.517 57.7811 219.517C57.7811 219.517 57.5927 215.367 56.0853 216.31C55.6343 216.607 55.2505 216.996 54.9584 217.451C54.6664 217.906 54.4726 218.417 54.3895 218.951L45.9105 217.065Z" fill="black"/>
<path d="M118.005 149.823L87.7671 119.668L117.974 89.5121L108.765 80.321L69.3787 119.668L108.796 159.015L118.005 149.823Z" fill="#6C63FF"/>
<path d="M39.2281 220.412C39.2281 220.412 34.4753 232.414 36.955 233.862C39.4347 235.311 65.4718 234.276 65.4718 234.276C65.4718 234.276 69.8113 231.586 64.8519 229.724C64.8519 229.724 60.719 229.517 58.0327 227.862C55.3463 226.206 52.2466 223.102 52.2466 223.102C52.2466 223.102 52.04 218.55 50.3869 219.585C49.8923 219.911 49.4713 220.337 49.151 220.836C48.8307 221.335 48.6182 221.896 48.5271 222.482L39.2281 220.412Z" fill="#2F2E41"/>
<path d="M63.612 144.266L60.719 170.338C60.719 170.338 59.6858 182.753 56.5861 185.443C56.5861 185.443 56.5861 189.374 55.5529 190.616L54.1064 206.962C54.1064 206.962 56.1728 212.963 55.9662 213.998C55.7596 215.032 56.7928 218.343 56.5861 218.757C56.3795 219.171 46.6672 218.757 46.6672 218.757L48.7337 185.443L55.1396 139.093L63.612 144.266Z" fill="#2F2E41"/>
<path opacity="0.1" d="M63.612 144.266L60.719 170.338C60.719 170.338 59.6858 182.753 56.5861 185.443C56.5861 185.443 56.5861 189.374 55.5529 190.616L54.1064 206.962C54.1064 206.962 56.1728 212.963 55.9662 213.998C55.7596 215.032 56.7928 218.343 56.5861 218.757C56.3795 219.171 46.6672 218.757 46.6672 218.757L48.7337 185.443L55.1396 139.093L63.612 144.266Z" fill="black"/>
<path d="M58.4461 143.438C58.4461 143.438 56.173 164.751 55.1398 169.303C54.4902 172.301 54.0756 175.345 53.9 178.408C53.9 178.408 53.6933 185.029 51.8335 186.891C51.2894 187.431 50.8618 188.077 50.5774 188.788C50.2931 189.5 50.1579 190.263 50.1804 191.03C50.1804 191.03 48.3206 211.929 49.3538 214.412C50.387 216.895 51.4202 218.964 50.387 220.619C49.3538 222.275 37.9884 222.275 37.9884 221.033C37.9884 219.792 37.9884 218.757 37.3685 218.136C36.7485 217.515 37.3685 213.584 37.3685 213.584C37.3685 213.584 34.8888 195.168 37.1618 189.788C39.4349 184.408 40.4681 169.717 40.4681 169.717C40.4681 169.717 38.815 152.956 36.7486 150.266C34.6821 147.576 37.1618 138.058 37.1618 138.058L58.4461 143.438Z" fill="#2F2E41"/>
<path d="M52.6282 77.2525C52.8684 77.8005 53.4434 78.1056 53.9669 78.3944C57.0008 80.0681 59.5404 82.4947 62.0425 84.8933C61.4182 82.7747 61.5512 80.5044 62.4186 78.4735C62.7174 77.7808 63.1089 77.0362 62.8954 76.3126C62.7384 75.7804 62.2858 75.3966 61.8475 75.0572C60.8266 74.2665 59.7595 73.5375 58.6519 72.874C57.8782 72.4105 56.2874 71.1765 55.3995 71.3108C55.3529 72.5121 55.3286 73.5861 54.8032 74.7088C54.6786 74.9751 52.72 77.462 52.6282 77.2525Z" fill="#A0616A"/>
<path d="M63.1987 79.9133C67.8779 79.9133 71.6711 76.115 71.6711 71.4296C71.6711 66.7442 67.8779 62.9459 63.1987 62.9459C58.5195 62.9459 54.7263 66.7442 54.7263 71.4296C54.7263 76.115 58.5195 79.9133 63.1987 79.9133Z" fill="#A0616A"/>
<path d="M63.6121 91.5009C63.6121 91.5009 65.0587 84.2587 60.9258 81.7757C56.7929 79.2926 52.0401 76.3957 52.0401 76.3957C52.0401 76.3957 50.5936 76.1888 49.9737 79.2926C49.9737 79.2926 38.195 81.5688 36.9551 92.7425C35.7153 103.916 37.7817 120.263 37.7817 120.263C37.7817 120.263 35.9219 134.54 33.6489 142.196C33.6489 142.196 31.7891 143.852 40.0548 141.369C48.3205 138.886 62.7856 148.404 62.7856 148.404C62.7856 148.404 64.2321 146.956 64.2321 145.921C64.2321 144.886 65.8852 138.886 65.8852 138.886C65.8852 138.886 67.3317 113.434 67.9517 110.538C68.5716 107.641 65.4719 91.9148 63.6121 91.5009Z" fill="#575A89"/>
<path d="M61.2022 72.3036C61.7111 72.0211 62.2819 71.8689 62.8638 71.8605C63.4463 71.8517 64.0152 71.682 64.5075 71.37C65.3078 70.7548 65.3665 69.5658 65.952 68.743C66.7996 67.5517 68.4906 67.4083 69.9501 67.4679C70.8428 67.5044 71.8042 67.5578 72.556 67.0743C73.3277 66.578 73.6775 65.6428 73.9377 64.7621C74.2454 63.7206 74.4444 62.447 73.6819 61.6745C73.1524 61.1382 72.3166 61.0321 71.7284 60.561C71.1184 60.0726 70.8675 59.2777 70.5359 58.5697C70.1587 57.707 69.562 56.9585 68.8054 56.3991C67.6957 55.627 66.2784 55.4539 64.9273 55.4684C63.5762 55.4829 62.2194 55.6608 60.8784 55.4947C59.7797 55.3587 58.6842 54.9928 57.5891 55.155C56.1936 55.3616 55.0391 56.4159 54.3515 57.6493C53.6638 58.8826 53.3688 60.2905 53.0827 61.6737L52.3046 65.4357C52.0633 66.6025 51.8209 67.8003 52.0072 68.9772C52.3934 71.4168 54.5481 73.3561 54.6966 75.8217C54.8381 75.1409 55.1462 74.5058 55.5932 73.9736C56.0402 73.4413 56.6121 73.0285 57.2577 72.7721C57.4196 72.6929 57.6035 72.6705 57.7796 72.7088C57.9936 72.7773 58.1188 72.9914 58.2539 73.1713C58.6078 73.6425 59.7198 74.3574 60.3501 74.0231C60.9141 73.724 60.4931 72.7851 61.2022 72.3036Z" fill="#2F2E41"/>
<path d="M39.8482 110.951C39.8482 110.951 38.4016 120.056 44.3943 119.228C44.3943 119.228 47.494 118.814 47.9072 119.228C48.3205 119.642 63.6122 116.952 65.6786 114.676C65.6786 114.676 68.1583 113.848 69.3982 115.09C70.638 116.331 83.0366 117.573 79.3171 113.848C75.5975 110.124 69.8115 109.296 69.8115 109.296L61.959 109.71C61.959 109.71 57.8261 110.951 55.3464 109.71C52.8667 108.468 45.8408 108.882 45.8408 108.882L39.8482 110.951Z" fill="#A0616A"/>
<path d="M48.3207 82.1895C48.3207 82.1895 39.0217 83.2241 39.0217 96.6739V113.848C39.0217 113.848 44.1878 111.572 45.221 111.779C46.2543 111.986 50.3871 109.089 50.3871 109.089C50.3871 109.089 55.1399 97.9154 54.7266 94.8116C54.3134 91.7078 54.52 82.6033 48.3207 82.1895Z" fill="#575A89"/>
<path d="M63.1987 70.2916C67.5925 70.2916 71.1545 68.4388 71.1545 66.1532C71.1545 63.8676 67.5925 62.0148 63.1987 62.0148C58.8048 62.0148 55.2429 63.8676 55.2429 66.1532C55.2429 68.4388 58.8048 70.2916 63.1987 70.2916Z" fill="#2F2E41"/>
<path d="M55.7597 73.8092C57.3004 73.8092 58.5493 70.7057 58.5493 66.8773C58.5493 63.049 57.3004 59.9455 55.7597 59.9455C54.219 59.9455 52.97 63.049 52.97 66.8773C52.97 70.7057 54.219 73.8092 55.7597 73.8092Z" fill="#2F2E41"/>
<path d="M118.018 53.6055C118.018 52.8555 117.752 52.2773 117.221 51.8711C116.698 51.4648 115.748 51.0547 114.373 50.6406C112.998 50.2266 111.905 49.7656 111.092 49.2578C109.537 48.2812 108.76 47.0078 108.76 45.4375C108.76 44.0625 109.319 42.9297 110.436 42.0391C111.561 41.1484 113.018 40.7031 114.807 40.7031C115.995 40.7031 117.053 40.9219 117.983 41.3594C118.912 41.7969 119.643 42.4219 120.174 43.2344C120.705 44.0391 120.971 44.9336 120.971 45.918H118.018C118.018 45.0273 117.737 44.332 117.174 43.832C116.62 43.3242 115.823 43.0703 114.784 43.0703C113.815 43.0703 113.061 43.2773 112.522 43.6914C111.991 44.1055 111.725 44.6836 111.725 45.4258C111.725 46.0508 112.014 46.5742 112.592 46.9961C113.17 47.4102 114.123 47.8164 115.452 48.2148C116.78 48.6055 117.846 49.0547 118.651 49.5625C119.455 50.0625 120.045 50.6406 120.42 51.2969C120.795 51.9453 120.983 52.707 120.983 53.582C120.983 55.0039 120.436 56.1367 119.342 56.9805C118.256 57.8164 116.78 58.2344 114.912 58.2344C113.678 58.2344 112.541 58.0078 111.502 57.5547C110.471 57.0938 109.666 56.4609 109.088 55.6562C108.518 54.8516 108.233 53.9141 108.233 52.8438H111.198C111.198 53.8125 111.518 54.5625 112.159 55.0938C112.799 55.625 113.717 55.8906 114.912 55.8906C115.944 55.8906 116.717 55.6836 117.233 55.2695C117.756 54.8477 118.018 54.293 118.018 53.6055ZM126.577 42.2383V45.3203H128.816V47.4297H126.577V54.5078C126.577 54.9922 126.671 55.3438 126.859 55.5625C127.054 55.7734 127.398 55.8789 127.89 55.8789C128.218 55.8789 128.55 55.8398 128.886 55.7617V57.9648C128.237 58.1445 127.612 58.2344 127.011 58.2344C124.823 58.2344 123.73 57.0273 123.73 54.6133V47.4297H121.644V45.3203H123.73V42.2383H126.577ZM138.277 58C138.152 57.7578 138.043 57.3633 137.949 56.8164C137.043 57.7617 135.934 58.2344 134.621 58.2344C133.348 58.2344 132.309 57.8711 131.504 57.1445C130.699 56.418 130.297 55.5195 130.297 54.4492C130.297 53.0977 130.797 52.0625 131.797 51.3438C132.805 50.6172 134.242 50.2539 136.109 50.2539H137.855V49.4219C137.855 48.7656 137.672 48.2422 137.305 47.8516C136.938 47.4531 136.379 47.2539 135.629 47.2539C134.98 47.2539 134.449 47.418 134.035 47.7461C133.621 48.0664 133.414 48.4766 133.414 48.9766H130.566C130.566 48.2812 130.797 47.6328 131.258 47.0312C131.719 46.4219 132.344 45.9453 133.133 45.6016C133.93 45.2578 134.816 45.0859 135.793 45.0859C137.277 45.0859 138.461 45.4609 139.344 46.2109C140.227 46.9531 140.68 48 140.703 49.3516V55.0703C140.703 56.2109 140.863 57.1211 141.184 57.8008V58H138.277ZM135.148 55.9492C135.711 55.9492 136.238 55.8125 136.73 55.5391C137.23 55.2656 137.605 54.8984 137.855 54.4375V52.0469H136.32C135.266 52.0469 134.473 52.2305 133.941 52.5977C133.41 52.9648 133.145 53.4844 133.145 54.1562C133.145 54.7031 133.324 55.1406 133.684 55.4688C134.051 55.7891 134.539 55.9492 135.148 55.9492ZM146.954 42.2383V45.3203H149.192V47.4297H146.954V54.5078C146.954 54.9922 147.048 55.3438 147.235 55.5625C147.43 55.7734 147.774 55.8789 148.266 55.8789C148.595 55.8789 148.927 55.8398 149.262 55.7617V57.9648C148.614 58.1445 147.989 58.2344 147.387 58.2344C145.2 58.2344 144.106 57.0273 144.106 54.6133V47.4297H142.02V45.3203H144.106V42.2383H146.954ZM158.759 56.7578C157.923 57.7422 156.736 58.2344 155.197 58.2344C153.822 58.2344 152.779 57.832 152.068 57.0273C151.365 56.2227 151.013 55.0586 151.013 53.5352V45.3203H153.861V53.5C153.861 55.1094 154.529 55.9141 155.865 55.9141C157.248 55.9141 158.181 55.418 158.666 54.4258V45.3203H161.513V58H158.83L158.759 56.7578ZM171.221 54.5547C171.221 54.0469 171.01 53.6602 170.588 53.3945C170.174 53.1289 169.483 52.8945 168.514 52.6914C167.545 52.4883 166.737 52.2305 166.088 51.918C164.666 51.2305 163.955 50.2344 163.955 48.9297C163.955 47.8359 164.416 46.9219 165.338 46.1875C166.26 45.4531 167.432 45.0859 168.854 45.0859C170.37 45.0859 171.592 45.4609 172.522 46.2109C173.459 46.9609 173.928 47.9336 173.928 49.1289H171.08C171.08 48.582 170.877 48.1289 170.471 47.7695C170.065 47.4023 169.526 47.2188 168.854 47.2188C168.229 47.2188 167.717 47.3633 167.319 47.6523C166.928 47.9414 166.733 48.3281 166.733 48.8125C166.733 49.25 166.916 49.5898 167.284 49.832C167.651 50.0742 168.393 50.3203 169.51 50.5703C170.627 50.8125 171.502 51.1055 172.135 51.4492C172.776 51.7852 173.248 52.1914 173.553 52.668C173.866 53.1445 174.022 53.7227 174.022 54.4023C174.022 55.543 173.549 56.4688 172.604 57.1797C171.659 57.8828 170.42 58.2344 168.889 58.2344C167.85 58.2344 166.924 58.0469 166.112 57.6719C165.299 57.2969 164.666 56.7812 164.213 56.125C163.76 55.4688 163.534 54.7617 163.534 54.0039H166.299C166.338 54.6758 166.592 55.1953 167.061 55.5625C167.53 55.9219 168.151 56.1016 168.924 56.1016C169.674 56.1016 170.245 55.9609 170.635 55.6797C171.026 55.3906 171.221 55.0156 171.221 54.5547ZM189.507 52.4453C189.335 54.2656 188.663 55.6875 187.491 56.7109C186.32 57.7266 184.761 58.2344 182.816 58.2344C181.456 58.2344 180.257 57.9141 179.218 57.2734C178.187 56.625 177.39 55.707 176.827 54.5195C176.265 53.332 175.972 51.9531 175.948 50.3828V48.7891C175.948 47.1797 176.234 45.7617 176.804 44.5352C177.374 43.3086 178.191 42.3633 179.253 41.6992C180.323 41.0352 181.558 40.7031 182.956 40.7031C184.839 40.7031 186.355 41.2148 187.503 42.2383C188.652 43.2617 189.32 44.707 189.507 46.5742H186.554C186.413 45.3477 186.054 44.4648 185.476 43.9258C184.905 43.3789 184.066 43.1055 182.956 43.1055C181.667 43.1055 180.675 43.5781 179.98 44.5234C179.292 45.4609 178.941 46.8398 178.925 48.6602V50.1719C178.925 52.0156 179.253 53.4219 179.909 54.3906C180.573 55.3594 181.542 55.8438 182.816 55.8438C183.98 55.8438 184.855 55.582 185.441 55.0586C186.027 54.5352 186.398 53.6641 186.554 52.4453H189.507ZM191.059 51.543C191.059 50.3008 191.305 49.1836 191.797 48.1914C192.289 47.1914 192.98 46.4258 193.871 45.8945C194.762 45.3555 195.785 45.0859 196.941 45.0859C198.652 45.0859 200.039 45.6367 201.102 46.7383C202.172 47.8398 202.75 49.3008 202.836 51.1211L202.848 51.7891C202.848 53.0391 202.605 54.1562 202.121 55.1406C201.645 56.125 200.957 56.8867 200.059 57.4258C199.168 57.9648 198.137 58.2344 196.965 58.2344C195.176 58.2344 193.742 57.6406 192.664 56.4531C191.594 55.2578 191.059 53.668 191.059 51.6836V51.543ZM193.906 51.7891C193.906 53.0938 194.176 54.1172 194.715 54.8594C195.254 55.5938 196.004 55.9609 196.965 55.9609C197.926 55.9609 198.672 55.5859 199.203 54.8359C199.742 54.0859 200.012 52.9883 200.012 51.543C200.012 50.2617 199.734 49.2461 199.18 48.4961C198.633 47.7461 197.887 47.3711 196.941 47.3711C196.012 47.3711 195.273 47.7422 194.727 48.4844C194.18 49.2188 193.906 50.3203 193.906 51.7891ZM204.423 51.5664C204.423 49.6133 204.876 48.0469 205.782 46.8672C206.688 45.6797 207.903 45.0859 209.427 45.0859C210.77 45.0859 211.856 45.5547 212.684 46.4922V40H215.532V58H212.954L212.813 56.6875C211.962 57.7188 210.825 58.2344 209.403 58.2344C207.919 58.2344 206.716 57.6367 205.794 56.4414C204.88 55.2461 204.423 53.6211 204.423 51.5664ZM207.27 51.8125C207.27 53.1016 207.516 54.1094 208.009 54.8359C208.509 55.5547 209.216 55.9141 210.13 55.9141C211.294 55.9141 212.145 55.3945 212.684 54.3555V48.9414C212.161 47.9258 211.317 47.418 210.153 47.418C209.231 47.418 208.52 47.7852 208.02 48.5195C207.52 49.2461 207.27 50.3438 207.27 51.8125ZM223.787 58.2344C221.982 58.2344 220.517 57.668 219.392 56.5352C218.275 55.3945 217.716 53.8789 217.716 51.9883V51.6367C217.716 50.3711 217.959 49.2422 218.443 48.25C218.935 47.25 219.623 46.4727 220.505 45.918C221.388 45.3633 222.373 45.0859 223.459 45.0859C225.185 45.0859 226.517 45.6367 227.455 46.7383C228.4 47.8398 228.873 49.3984 228.873 51.4141V52.5625H220.587C220.673 53.6094 221.021 54.4375 221.63 55.0469C222.248 55.6562 223.021 55.9609 223.951 55.9609C225.255 55.9609 226.318 55.4336 227.138 54.3789L228.673 55.8438C228.166 56.6016 227.486 57.1914 226.634 57.6133C225.791 58.0273 224.841 58.2344 223.787 58.2344ZM223.447 47.3711C222.666 47.3711 222.033 47.6445 221.548 48.1914C221.072 48.7383 220.767 49.5 220.634 50.4766H226.06V50.2656C225.998 49.3125 225.744 48.5938 225.298 48.1094C224.853 47.6172 224.236 47.3711 223.447 47.3711Z" fill="#2F2E41"/>
</svg>
